<svg width="265pt" height="506pt" viewBox="0.00 0.00 265.00 506.00" xmlns="http://www.w3.org/2000/svg" xmlns:xlink="http://www.w3.org/1999/xlink">
<g id="graph0" class="graph" transform="scale(1 1) rotate(0) translate(4 501.6)">
<title>DashboardCreation</title>
<polygon fill="white" stroke="none" points="-4,4 -4,-501.6 261.08,-501.6 261.08,4 -4,4"/>
<text xml:space="preserve" text-anchor="middle" x="128.54" y="-477.4" font-family="Arial" font-size="18.00">Создание дашборда в Kibana</text>
<!-- step1 -->
<g id="node1" class="node">
<title>step1</title>
<polygon fill="#e8f0fe" stroke="black" points="185.17,-468 71.91,-468 71.91,-424 185.17,-424 185.17,-468"/>
<text xml:space="preserve" text-anchor="middle" x="128.54" y="-455" font-family="Arial" font-size="10.00">1. Discover</text>
<text xml:space="preserve" text-anchor="middle" x="128.54" y="-443" font-family="Arial" font-size="10.00">Найти нужные логи</text>
<text xml:space="preserve" text-anchor="middle" x="128.54" y="-431" font-family="Arial" font-size="10.00">KQL: nginx AND error</text>
</g>
<!-- step2 -->
<g id="node2" class="node">
<title>step2</title>
<polygon fill="#fff3e0" stroke="black" points="182.39,-395 74.7,-395 74.7,-351 182.39,-351 182.39,-395"/>
<text xml:space="preserve" text-anchor="middle" x="128.54" y="-382" font-family="Arial" font-size="10.00">2. Сохранить поиск</text>
<text xml:space="preserve" text-anchor="middle" x="128.54" y="-370" font-family="Arial" font-size="10.00">Save → название:</text>
<text xml:space="preserve" text-anchor="middle" x="128.54" y="-358" font-family="Arial" font-size="10.00">'Nginx errors'</text>
</g>
<!-- step1&#45;&gt;step2 -->
<g id="edge1" class="edge">
<title>step1-&gt;step2</title>
<path fill="none" stroke="black" d="M128.54,-423.7C128.54,-423.7 128.54,-406.93 128.54,-406.93"/>
<polygon fill="black" stroke="black" points="132.04,-406.93 128.54,-396.93 125.04,-406.93 132.04,-406.93"/>
</g>
<!-- step3 -->
<g id="node3" class="node">
<title>step3</title>
<polygon fill="#fff3e0" stroke="black" points="196.28,-322 60.81,-322 60.81,-254 196.28,-254 196.28,-322"/>
<text xml:space="preserve" text-anchor="middle" x="128.54" y="-309" font-family="Arial" font-size="10.00">3. Создать визуализацию</text>
<text xml:space="preserve" text-anchor="middle" x="128.54" y="-297" font-family="Arial" font-size="10.00">Visualize → Lens</text>
<text xml:space="preserve" text-anchor="middle" x="128.54" y="-285" font-family="Arial" font-size="10.00">Тип: Bar chart</text>
<text xml:space="preserve" text-anchor="middle" x="128.54" y="-273" font-family="Arial" font-size="10.00">Ось X: @timestamp</text>
<text xml:space="preserve" text-anchor="middle" x="128.54" y="-261" font-family="Arial" font-size="10.00">Ось Y: Count</text>
</g>
<!-- step2&#45;&gt;step3 -->
<g id="edge2" class="edge">
<title>step2-&gt;step3</title>
<path fill="none" stroke="black" d="M128.54,-350.67C128.54,-350.67 128.54,-333.87 128.54,-333.87"/>
<polygon fill="black" stroke="black" points="132.04,-333.87 128.54,-323.87 125.04,-333.87 132.04,-333.87"/>
</g>
<!-- step4 -->
<g id="node4" class="node">
<title>step4</title>
<polygon fill="#e6f4ea" stroke="black" points="194.89,-225 62.2,-225 62.2,-133 194.89,-133 194.89,-225"/>
<text xml:space="preserve" text-anchor="middle" x="128.54" y="-212" font-family="Arial" font-size="10.00">4. Добавить на дашборд</text>
<text xml:space="preserve" text-anchor="middle" x="128.54" y="-200" font-family="Arial" font-size="10.00">Dashboard → Create</text>
<text xml:space="preserve" text-anchor="middle" x="128.54" y="-188" font-family="Arial" font-size="10.00">Добавить визуализации:</text>
<text xml:space="preserve" text-anchor="middle" x="128.54" y="-176" font-family="Arial" font-size="10.00">- Гистограмма ошибок</text>
<text xml:space="preserve" text-anchor="middle" x="128.54" y="-164" font-family="Arial" font-size="10.00">- Таблица последних</text>
<text xml:space="preserve" text-anchor="middle" x="128.54" y="-152" font-family="Arial" font-size="10.00">- Счётчик 5xx</text>
<text xml:space="preserve" text-anchor="middle" x="128.54" y="-140" font-family="Arial" font-size="10.00">- Топ IP-адресов</text>
</g>
<!-- step3&#45;&gt;step4 -->
<g id="edge3" class="edge">
<title>step3-&gt;step4</title>
<path fill="none" stroke="black" d="M128.54,-253.51C128.54,-253.51 128.54,-236.74 128.54,-236.74"/>
<polygon fill="black" stroke="black" points="132.04,-236.74 128.54,-226.74 125.04,-236.74 132.04,-236.74"/>
</g>
<!-- step5 -->
<g id="node5" class="node">
<title>step5</title>
<polygon fill="#e6f4ea" stroke="black" points="187.94,-104 69.14,-104 69.14,0 187.94,0 187.94,-104"/>
<text xml:space="preserve" text-anchor="middle" x="128.54" y="-91" font-family="Arial" font-size="10.00">5. Сохранить дашборд</text>
<text xml:space="preserve" text-anchor="middle" x="128.54" y="-79" font-family="Arial" font-size="10.00">Dashboard → Save</text>
<text xml:space="preserve" text-anchor="middle" x="128.54" y="-67" font-family="Arial" font-size="10.00">Название:</text>
<text xml:space="preserve" text-anchor="middle" x="128.54" y="-55" font-family="Arial" font-size="10.00">'Production Overview'</text>
<text xml:space="preserve" text-anchor="middle" x="128.54" y="-31" font-family="Arial" font-size="10.00">Готово! Можно</text>
<text xml:space="preserve" text-anchor="middle" x="128.54" y="-19" font-family="Arial" font-size="10.00">открывать в любой</text>
<text xml:space="preserve" text-anchor="middle" x="128.54" y="-7" font-family="Arial" font-size="10.00">момент</text>
</g>
<!-- step4&#45;&gt;step5 -->
<g id="edge4" class="edge">
<title>step4-&gt;step5</title>
<path fill="none" stroke="black" d="M128.54,-132.79C128.54,-132.79 128.54,-115.93 128.54,-115.93"/>
<polygon fill="black" stroke="black" points="132.04,-115.93 128.54,-105.93 125.04,-115.93 132.04,-115.93"/>
</g>
</g>
</svg>