<svg width="423pt" height="680pt" viewBox="0.00 0.00 423.00 680.00" xmlns="http://www.w3.org/2000/svg" xmlns:xlink="http://www.w3.org/1999/xlink">
<g id="graph0" class="graph" transform="scale(1 1) rotate(0) translate(4 676.2)">
<title>ES_Cluster</title>
<polygon fill="white" stroke="none" points="-4,4 -4,-676.2 419,-676.2 419,4 -4,4"/>
<text xml:space="preserve" text-anchor="middle" x="207.5" y="-650.2" font-family="Arial" font-size="20.00">Кластер Elasticsearch из 3 нод</text>
<g id="clust1" class="cluster">
<title>cluster_es_nodes</title>
<polygon fill="#e6f4ea" stroke="black" points="8,-221.4 8,-632.2 343,-632.2 343,-221.4 8,-221.4"/>
<text xml:space="preserve" text-anchor="middle" x="175.5" y="-616.5" font-family="Arial" font-size="13.00">Ноды кластера</text>
</g>
<g id="clust2" class="cluster">
<title>cluster_shards</title>
<polygon fill="#fff3e0" stroke="black" points="177,-8 177,-198.4 407,-198.4 407,-8 177,-8"/>
<text xml:space="preserve" text-anchor="middle" x="292" y="-183.6" font-family="Arial" font-size="12.00">Распределение шардов индекса logs-*</text>
</g>
<!-- es1 -->
<g id="node1" class="node">
<title>es1</title>
<polygon fill="#a5d6a7" stroke="black" points="306.18,-600.6 181.82,-600.6 181.82,-520.6 306.18,-520.6 306.18,-600.6"/>
<text xml:space="preserve" text-anchor="middle" x="244" y="-587.6" font-family="Arial" font-size="10.00">es-node1</text>
<text xml:space="preserve" text-anchor="middle" x="244" y="-575.6" font-family="Arial" font-size="10.00">192.168.122.71:9200</text>
<text xml:space="preserve" text-anchor="middle" x="244" y="-563.6" font-family="Arial" font-size="10.00">Роль: Master</text>
<text xml:space="preserve" text-anchor="middle" x="244" y="-551.6" font-family="Arial" font-size="10.00">Хранит шарды P0, P1</text>
<text xml:space="preserve" text-anchor="middle" x="244" y="-539.6" font-family="Arial" font-size="10.00">Реплики R2, R3</text>
<text xml:space="preserve" text-anchor="middle" x="244" y="-527.6" font-family="Arial" font-size="10.00">Координирует кластер</text>
</g>
<!-- es2 -->
<g id="node2" class="node">
<title>es2</title>
<polygon fill="#a5d6a7" stroke="black" points="335.35,-443 222.65,-443 222.65,-375 335.35,-375 335.35,-443"/>
<text xml:space="preserve" text-anchor="middle" x="279" y="-430" font-family="Arial" font-size="10.00">es-node2</text>
<text xml:space="preserve" text-anchor="middle" x="279" y="-418" font-family="Arial" font-size="10.00">192.168.122.72:9200</text>
<text xml:space="preserve" text-anchor="middle" x="279" y="-406" font-family="Arial" font-size="10.00">Роль: Data</text>
<text xml:space="preserve" text-anchor="middle" x="279" y="-394" font-family="Arial" font-size="10.00">Хранит шарды P2, P3</text>
<text xml:space="preserve" text-anchor="middle" x="279" y="-382" font-family="Arial" font-size="10.00">Реплики R0, R1</text>
</g>
<!-- es1&#45;&gt;es2 -->
<g id="edge1" class="edge">
<title>es1-&gt;es2</title>
<path fill="none" stroke="#34a853" d="M264.41,-508.86C264.41,-508.86 264.41,-455.01 264.41,-455.01"/>
<polygon fill="#34a853" stroke="#34a853" points="260.91,-508.86 264.41,-518.86 267.91,-508.86 260.91,-508.86"/>
<polygon fill="#34a853" stroke="#34a853" points="267.91,-455.01 264.41,-445.01 260.91,-455.01 267.91,-455.01"/>
<text xml:space="preserve" text-anchor="middle" x="289.5" y="-486" font-family="Times,serif" font-size="14.00">Синхронизация</text>
<text xml:space="preserve" text-anchor="middle" x="289.5" y="-469.2" font-family="Times,serif" font-size="14.00">шардов</text>
</g>
<!-- shards -->
<g id="node4" class="node">
<title>shards</title>
<polygon fill="#ffe0b2" stroke="black" points="359.6,-168 218.4,-168 218.4,-16 365.6,-16 365.6,-162 359.6,-168"/>
<polyline fill="none" stroke="black" points="359.6,-168 359.6,-162"/>
<polyline fill="none" stroke="black" points="365.6,-162 359.6,-162"/>
<text xml:space="preserve" text-anchor="middle" x="292" y="-155" font-family="Arial" font-size="10.00">Primary Shards (6):</text>
<text xml:space="preserve" text-anchor="middle" x="292" y="-143" font-family="Arial" font-size="10.00">P0,P1 → es-node1</text>
<text xml:space="preserve" text-anchor="middle" x="292" y="-131" font-family="Arial" font-size="10.00">P2,P3 → es-node2</text>
<text xml:space="preserve" text-anchor="middle" x="292" y="-119" font-family="Arial" font-size="10.00">P4,P5 → es-node3</text>
<text xml:space="preserve" text-anchor="middle" x="292" y="-95" font-family="Arial" font-size="10.00">Replica Shards (6):</text>
<text xml:space="preserve" text-anchor="middle" x="292" y="-83" font-family="Arial" font-size="10.00">R0,R1 → es-node2, es-node3</text>
<text xml:space="preserve" text-anchor="middle" x="292" y="-71" font-family="Arial" font-size="10.00">R2,R3 → es-node2, es-node3</text>
<text xml:space="preserve" text-anchor="middle" x="292" y="-59" font-family="Arial" font-size="10.00">R4,R5 → es-node1</text>
<text xml:space="preserve" text-anchor="middle" x="292" y="-35" font-family="Arial" font-size="10.00">Всего: 12 шардов</text>
<text xml:space="preserve" text-anchor="middle" x="292" y="-23" font-family="Arial" font-size="10.00">Статус: GREEN</text>
</g>
<!-- es1&#45;&gt;shards -->
<g id="edge4" class="edge">
<title>es1-&gt;shards</title>
<path fill="none" stroke="black" d="M211.38,-520.24C211.38,-406.58 211.38,-92 211.38,-92 211.38,-92 212.04,-92 212.04,-92"/>
<polygon fill="black" stroke="black" points="206.46,-95.5 216.46,-92 206.46,-88.5 206.46,-95.5"/>
</g>
<!-- es3 -->
<g id="node3" class="node">
<title>es3</title>
<polygon fill="#a5d6a7" stroke="black" points="204.35,-297.4 91.65,-297.4 91.65,-229.4 204.35,-229.4 204.35,-297.4"/>
<text xml:space="preserve" text-anchor="middle" x="148" y="-284.4" font-family="Arial" font-size="10.00">es-node3</text>
<text xml:space="preserve" text-anchor="middle" x="148" y="-272.4" font-family="Arial" font-size="10.00">192.168.122.73:9200</text>
<text xml:space="preserve" text-anchor="middle" x="148" y="-260.4" font-family="Arial" font-size="10.00">Роль: Data</text>
<text xml:space="preserve" text-anchor="middle" x="148" y="-248.4" font-family="Arial" font-size="10.00">Хранит шарды P4, P5</text>
<text xml:space="preserve" text-anchor="middle" x="148" y="-236.4" font-family="Arial" font-size="10.00">Реплики R0, R1</text>
</g>
<!-- es2&#45;&gt;es3 -->
<g id="edge2" class="edge">
<title>es2-&gt;es3</title>
<path fill="none" stroke="#34a853" d="M210.87,-409C210.87,-409 196.84,-409 196.84,-409 196.84,-409 196.84,-309.05 196.84,-309.05"/>
<polygon fill="#34a853" stroke="#34a853" points="210.87,-412.5 220.87,-409 210.87,-405.5 210.87,-412.5"/>
<polygon fill="#34a853" stroke="#34a853" points="200.34,-309.05 196.84,-299.05 193.34,-309.05 200.34,-309.05"/>
<text xml:space="preserve" text-anchor="middle" x="204.5" y="-340.4" font-family="Times,serif" font-size="14.00">Синхронизация</text>
<text xml:space="preserve" text-anchor="middle" x="204.5" y="-323.6" font-family="Times,serif" font-size="14.00">шардов</text>
</g>
<!-- es2&#45;&gt;shards -->
<g id="edge5" class="edge">
<title>es2-&gt;shards</title>
<path fill="none" stroke="black" d="M297.78,-374.77C297.78,-374.77 297.78,-179.89 297.78,-179.89"/>
<polygon fill="black" stroke="black" points="301.28,-179.89 297.78,-169.89 294.28,-179.89 301.28,-179.89"/>
</g>
<!-- es3&#45;&gt;es1 -->
<g id="edge3" class="edge">
<title>es3-&gt;es1</title>
<path fill="none" stroke="#34a853" d="M189.33,-309.3C189.33,-309.3 189.33,-508.87 189.33,-508.87"/>
<polygon fill="#34a853" stroke="#34a853" points="192.83,-309.3 189.33,-299.3 185.83,-309.3 192.83,-309.3"/>
<polygon fill="#34a853" stroke="#34a853" points="185.83,-508.87 189.33,-518.87 192.83,-508.87 185.83,-508.87"/>
<text xml:space="preserve" text-anchor="middle" x="119.5" y="-413.2" font-family="Times,serif" font-size="14.00">Синхронизация</text>
<text xml:space="preserve" text-anchor="middle" x="119.5" y="-396.4" font-family="Times,serif" font-size="14.00">шардов</text>
</g>
<!-- es3&#45;&gt;shards -->
<g id="edge6" class="edge">
<title>es3-&gt;shards</title>
<path fill="none" stroke="black" d="M204.77,-263C232.6,-263 260.22,-263 260.22,-263 260.22,-263 260.22,-180.01 260.22,-180.01"/>
<polygon fill="black" stroke="black" points="263.72,-180.01 260.22,-170.01 256.72,-180.01 263.72,-180.01"/>
</g>
</g>
</svg>