<svg width="412pt" height="469pt" viewBox="0.00 0.00 412.00 469.00" xmlns="http://www.w3.org/2000/svg" xmlns:xlink="http://www.w3.org/1999/xlink">
<g id="graph0" class="graph" transform="scale(1 1) rotate(0) translate(4 464.54)">
<title>FilebeatFlow</title>
<polygon fill="white" stroke="none" points="-4,4 -4,-464.54 407.88,-464.54 407.88,4 -4,4"/>
<text xml:space="preserve" text-anchor="middle" x="201.94" y="-438.54" font-family="Arial" font-size="20.00">Процесс сбора и отправки логов Filebeat</text>
<g id="clust1" class="cluster">
<title>cluster_inputs</title>
<polygon fill="#fce8e6" stroke="black" points="8.94,-326.14 8.94,-420.54 394.94,-420.54 394.94,-326.14 8.94,-326.14"/>
<text xml:space="preserve" text-anchor="middle" x="201.94" y="-405.74" font-family="Arial" font-size="12.00">Inputs (источники)</text>
</g>
<g id="clust2" class="cluster">
<title>cluster_output</title>
<polygon fill="#e6f4ea" stroke="black" points="101.94,-8 101.94,-106.9 279.94,-106.9 279.94,-8 101.94,-8"/>
<text xml:space="preserve" text-anchor="middle" x="190.94" y="-92.1" font-family="Arial" font-size="12.00">Output</text>
</g>
<!-- nginx_log -->
<g id="node1" class="node">
<title>nginx_log</title>
<polygon fill="#ffcdd2" stroke="black" points="95.07,-390.14 16.81,-390.14 16.81,-334.14 95.07,-334.14 95.07,-390.14"/>
<text xml:space="preserve" text-anchor="middle" x="55.94" y="-377.14" font-family="Arial" font-size="10.00">/var/log/nginx/</text>
<text xml:space="preserve" text-anchor="middle" x="55.94" y="-365.14" font-family="Arial" font-size="10.00">access.log</text>
<text xml:space="preserve" text-anchor="middle" x="55.94" y="-353.14" font-family="Arial" font-size="10.00">error.log</text>
<text xml:space="preserve" text-anchor="middle" x="55.94" y="-341.14" font-family="Arial" font-size="10.00">Теги: nginx</text>
</g>
<!-- filebeat -->
<g id="node4" class="node">
<title>filebeat</title>
<polygon fill="#ea4335" stroke="black" points="287.94,-231.82 239.44,-297.14 142.44,-297.14 93.94,-231.82 142.44,-166.5 239.44,-166.5 287.94,-231.82"/>
<text xml:space="preserve" text-anchor="middle" x="190.94" y="-258.82" font-family="Arial" font-size="10.00" fill="white">Filebeat</text>
<text xml:space="preserve" text-anchor="middle" x="190.94" y="-246.82" font-family="Arial" font-size="10.00" fill="white">Читает лог-файлы</text>
<text xml:space="preserve" text-anchor="middle" x="190.94" y="-234.82" font-family="Arial" font-size="10.00" fill="white">Отслеживает позицию</text>
<text xml:space="preserve" text-anchor="middle" x="190.94" y="-222.82" font-family="Arial" font-size="10.00" fill="white">(registry)</text>
<text xml:space="preserve" text-anchor="middle" x="190.94" y="-210.82" font-family="Arial" font-size="10.00" fill="white">Буферизация</text>
<text xml:space="preserve" text-anchor="middle" x="190.94" y="-198.82" font-family="Arial" font-size="10.00" fill="white">Отправка в ES</text>
</g>
<!-- nginx_log&#45;&gt;filebeat -->
<g id="edge1" class="edge">
<title>nginx_log-&gt;filebeat</title>
<path fill="none" stroke="black" d="M95.2,-362C108.59,-362 120.25,-362 120.25,-362 120.25,-362 120.25,-279.6 120.25,-279.6"/>
<polygon fill="black" stroke="black" points="123.75,-279.6 120.25,-269.6 116.75,-279.6 123.75,-279.6"/>
</g>
<!-- syslog -->
<g id="node2" class="node">
<title>syslog</title>
<polygon fill="#ffcdd2" stroke="black" points="236.45,-384.14 145.43,-384.14 145.43,-340.14 236.45,-340.14 236.45,-384.14"/>
<text xml:space="preserve" text-anchor="middle" x="190.94" y="-371.14" font-family="Arial" font-size="10.00">/var/log/syslog</text>
<text xml:space="preserve" text-anchor="middle" x="190.94" y="-359.14" font-family="Arial" font-size="10.00">Системные логи</text>
<text xml:space="preserve" text-anchor="middle" x="190.94" y="-347.14" font-family="Arial" font-size="10.00">Теги: system</text>
</g>
<!-- syslog&#45;&gt;filebeat -->
<g id="edge2" class="edge">
<title>syslog-&gt;filebeat</title>
<path fill="none" stroke="black" d="M190.94,-339.74C190.94,-339.74 190.94,-309.15 190.94,-309.15"/>
<polygon fill="black" stroke="black" points="194.44,-309.15 190.94,-299.15 187.44,-309.15 194.44,-309.15"/>
</g>
<!-- psql_log -->
<g id="node3" class="node">
<title>psql_log</title>
<polygon fill="#ffcdd2" stroke="black" points="387.18,-384.14 286.7,-384.14 286.7,-340.14 387.18,-340.14 387.18,-384.14"/>
<text xml:space="preserve" text-anchor="middle" x="336.94" y="-371.14" font-family="Arial" font-size="10.00">/var/log/postgresql/</text>
<text xml:space="preserve" text-anchor="middle" x="336.94" y="-359.14" font-family="Arial" font-size="10.00">postgresql-*.log</text>
<text xml:space="preserve" text-anchor="middle" x="336.94" y="-347.14" font-family="Arial" font-size="10.00">Теги: postgresql</text>
</g>
<!-- psql_log&#45;&gt;filebeat -->
<g id="edge3" class="edge">
<title>psql_log-&gt;filebeat</title>
<path fill="none" stroke="black" d="M286.25,-362C272.62,-362 261.57,-362 261.57,-362 261.57,-362 261.57,-279.6 261.57,-279.6"/>
<polygon fill="black" stroke="black" points="265.07,-279.6 261.57,-269.6 258.07,-279.6 265.07,-279.6"/>
</g>
<!-- es -->
<g id="node5" class="node">
<title>es</title>
<path fill="#a5d6a7" stroke="black" d="M271.75,-71C271.75,-74.03 235.53,-76.5 190.94,-76.5 146.35,-76.5 110.14,-74.03 110.14,-71 110.14,-71 110.14,-21.5 110.14,-21.5 110.14,-18.47 146.35,-16 190.94,-16 235.53,-16 271.75,-18.47 271.75,-21.5 271.75,-21.5 271.75,-71 271.75,-71"/>
<path fill="none" stroke="black" d="M271.75,-71C271.75,-67.97 235.53,-65.5 190.94,-65.5 146.35,-65.5 110.14,-67.97 110.14,-71"/>
<text xml:space="preserve" text-anchor="middle" x="190.94" y="-55.25" font-family="Arial" font-size="10.00">Elasticsearch</text>
<text xml:space="preserve" text-anchor="middle" x="190.94" y="-43.25" font-family="Arial" font-size="10.00">hosts: es-node1,2,3</text>
<text xml:space="preserve" text-anchor="middle" x="190.94" y="-31.25" font-family="Arial" font-size="10.00">index: logs-8.12.0-YYYY.MM.DD</text>
</g>
<!-- filebeat&#45;&gt;es -->
<g id="edge4" class="edge">
<title>filebeat-&gt;es</title>
<path fill="none" stroke="#34a853" stroke-width="2" d="M190.94,-166.13C190.94,-166.13 190.94,-89.8 190.94,-89.8"/>
<polygon fill="#34a853" stroke="#34a853" stroke-width="2" points="194.44,-89.8 190.94,-79.8 187.44,-89.8 194.44,-89.8"/>
<text xml:space="preserve" text-anchor="middle" x="216.41" y="-135.9" font-family="Times,serif" font-size="14.00">HTTP</text>
<text xml:space="preserve" text-anchor="middle" x="216.41" y="-119.1" font-family="Times,serif" font-size="14.00">bulk API</text>
</g>
</g>
</svg>