<svg width="424pt" height="593pt" viewBox="0.00 0.00 424.00 593.00" xmlns="http://www.w3.org/2000/svg" xmlns:xlink="http://www.w3.org/1999/xlink">
<g id="graph0" class="graph" transform="scale(1 1) rotate(0) translate(4 588.6)">
<title>TechStack</title>
<polygon fill="white" stroke="none" points="-4,4 -4,-588.6 420,-588.6 420,4 -4,4"/>
<text xml:space="preserve" text-anchor="middle" x="208" y="-562.6" font-family="Arial" font-size="20.00">Технологический стек ELK</text>
<g id="clust1" class="cluster">
<title>cluster_iaac</title>
<polygon fill="#e0e0e0" stroke="black" points="69,-457.4 69,-544.6 355,-544.6 355,-457.4 69,-457.4"/>
<text xml:space="preserve" text-anchor="middle" x="212" y="-528.9" font-family="Arial" font-size="13.00">Infrastructure as Code</text>
</g>
<g id="clust2" class="cluster">
<title>cluster_elk</title>
<polygon fill="#e6f4ea" stroke="black" points="276,-8 276,-434.4 408,-434.4 408,-8 276,-8"/>
<text xml:space="preserve" text-anchor="middle" x="342" y="-418.7" font-family="Arial" font-size="13.00">ELK Stack</text>
</g>
<g id="clust3" class="cluster">
<title>cluster_virt</title>
<polygon fill="#e8f0fe" stroke="black" points="8,-327.4 8,-427.8 117,-427.8 117,-327.4 8,-327.4"/>
<text xml:space="preserve" text-anchor="middle" x="62.5" y="-412.1" font-family="Arial" font-size="13.00">Виртуализация</text>
</g>
<!-- tf -->
<g id="node1" class="node">
<title>tf</title>
<polygon fill="#bdbdbd" stroke="black" points="175.27,-513 76.73,-513 76.73,-465.4 175.27,-465.4 175.27,-513"/>
<text xml:space="preserve" text-anchor="middle" x="126" y="-499.1" font-family="Arial" font-size="11.00">Terraform 1.12</text>
<text xml:space="preserve" text-anchor="middle" x="126" y="-485.9" font-family="Arial" font-size="11.00">Создание 4 ВМ</text>
<text xml:space="preserve" text-anchor="middle" x="126" y="-472.7" font-family="Arial" font-size="11.00">для ES и Kibana</text>
</g>
<!-- kvm -->
<g id="node6" class="node">
<title>kvm</title>
<polygon fill="#bbdefb" stroke="black" points="108.2,-396.2 15.8,-396.2 15.8,-335.4 108.2,-335.4 108.2,-396.2"/>
<text xml:space="preserve" text-anchor="middle" x="62" y="-382.3" font-family="Arial" font-size="11.00">KVM/libvirt</text>
<text xml:space="preserve" text-anchor="middle" x="62" y="-369.1" font-family="Arial" font-size="11.00">4 виртуальные</text>
<text xml:space="preserve" text-anchor="middle" x="62" y="-355.9" font-family="Arial" font-size="11.00">машины</text>
<text xml:space="preserve" text-anchor="middle" x="62" y="-342.7" font-family="Arial" font-size="11.00">Ubuntu 22.04</text>
</g>
<!-- tf&#45;&gt;kvm -->
<g id="edge1" class="edge">
<title>tf-&gt;kvm</title>
<path fill="none" stroke="black" stroke-dasharray="1,5" d="M92.47,-465.11C92.47,-465.11 92.47,-407.91 92.47,-407.91"/>
<polygon fill="black" stroke="black" points="95.97,-407.91 92.47,-397.91 88.97,-407.91 95.97,-407.91"/>
</g>
<!-- ansible -->
<g id="node2" class="node">
<title>ansible</title>
<polygon fill="#bdbdbd" stroke="black" points="346.91,-513 233.09,-513 233.09,-465.4 346.91,-465.4 346.91,-513"/>
<text xml:space="preserve" text-anchor="middle" x="290" y="-499.1" font-family="Arial" font-size="11.00">Ansible</text>
<text xml:space="preserve" text-anchor="middle" x="290" y="-485.9" font-family="Arial" font-size="11.00">Роли: elasticsearch,</text>
<text xml:space="preserve" text-anchor="middle" x="290" y="-472.7" font-family="Arial" font-size="11.00">kibana, filebeat</text>
</g>
<!-- es -->
<g id="node3" class="node">
<title>es</title>
<polygon fill="#a5d6a7" stroke="black" points="397.37,-251.2 286.63,-251.2 286.63,-164 397.37,-164 397.37,-251.2"/>
<text xml:space="preserve" text-anchor="middle" x="342" y="-237.3" font-family="Arial" font-size="11.00">Elasticsearch 8.12</text>
<text xml:space="preserve" text-anchor="middle" x="342" y="-224.1" font-family="Arial" font-size="11.00">Распределённый</text>
<text xml:space="preserve" text-anchor="middle" x="342" y="-210.9" font-family="Arial" font-size="11.00">поисковый движок</text>
<text xml:space="preserve" text-anchor="middle" x="342" y="-197.7" font-family="Arial" font-size="11.00">REST API</text>
<text xml:space="preserve" text-anchor="middle" x="342" y="-184.5" font-family="Arial" font-size="11.00">Apache Lucene</text>
<text xml:space="preserve" text-anchor="middle" x="342" y="-171.3" font-family="Arial" font-size="11.00">Шарды и реплики</text>
</g>
<!-- ansible&#45;&gt;es -->
<g id="edge2" class="edge">
<title>ansible-&gt;es</title>
<path fill="none" stroke="black" stroke-dasharray="5,2" d="M267.15,-465.23C267.15,-397.22 267.15,-208 267.15,-208 267.15,-208 274.91,-208 274.91,-208"/>
<polygon fill="black" stroke="black" points="274.91,-211.5 284.91,-208 274.91,-204.5 274.91,-211.5"/>
</g>
<!-- kibana -->
<g id="node4" class="node">
<title>kibana</title>
<polygon fill="#a5d6a7" stroke="black" points="396.51,-103.2 303.49,-103.2 303.49,-16 396.51,-16 396.51,-103.2"/>
<text xml:space="preserve" text-anchor="middle" x="350" y="-89.3" font-family="Arial" font-size="11.00">Kibana 8.12</text>
<text xml:space="preserve" text-anchor="middle" x="350" y="-76.1" font-family="Arial" font-size="11.00">Веб-интерфейс</text>
<text xml:space="preserve" text-anchor="middle" x="350" y="-62.9" font-family="Arial" font-size="11.00">Дашборды</text>
<text xml:space="preserve" text-anchor="middle" x="350" y="-49.7" font-family="Arial" font-size="11.00">Discover</text>
<text xml:space="preserve" text-anchor="middle" x="350" y="-36.5" font-family="Arial" font-size="11.00">Canvas</text>
<text xml:space="preserve" text-anchor="middle" x="350" y="-23.3" font-family="Arial" font-size="11.00">Timelion</text>
</g>
<!-- ansible&#45;&gt;kibana -->
<g id="edge3" class="edge">
<title>ansible-&gt;kibana</title>
<path fill="none" stroke="black" stroke-dasharray="5,2" d="M250.12,-465.2C250.12,-374.82 250.12,-60 250.12,-60 250.12,-60 291.76,-60 291.76,-60"/>
<polygon fill="black" stroke="black" points="291.76,-63.5 301.76,-60 291.76,-56.5 291.76,-63.5"/>
</g>
<!-- filebeat -->
<g id="node5" class="node">
<title>filebeat</title>
<polygon fill="#a5d6a7" stroke="black" points="399.82,-402.8 284.18,-402.8 284.18,-328.8 399.82,-328.8 399.82,-402.8"/>
<text xml:space="preserve" text-anchor="middle" x="342" y="-388.9" font-family="Arial" font-size="11.00">Filebeat 8.12</text>
<text xml:space="preserve" text-anchor="middle" x="342" y="-375.7" font-family="Arial" font-size="11.00">Лёгкий агент</text>
<text xml:space="preserve" text-anchor="middle" x="342" y="-362.5" font-family="Arial" font-size="11.00">Чтение лог-файлов</text>
<text xml:space="preserve" text-anchor="middle" x="342" y="-349.3" font-family="Arial" font-size="11.00">Отправка в ES</text>
<text xml:space="preserve" text-anchor="middle" x="342" y="-336.1" font-family="Arial" font-size="11.00">Модули (nginx, psql)</text>
</g>
<!-- ansible&#45;&gt;filebeat -->
<g id="edge4" class="edge">
<title>ansible-&gt;filebeat</title>
<path fill="none" stroke="black" stroke-dasharray="5,2" d="M315.54,-465.11C315.54,-465.11 315.54,-414.46 315.54,-414.46"/>
<polygon fill="black" stroke="black" points="319.04,-414.46 315.54,-404.46 312.04,-414.46 319.04,-414.46"/>
</g>
<!-- es&#45;&gt;kibana -->
<g id="edge6" class="edge">
<title>es-&gt;kibana</title>
<path fill="none" stroke="#fb8c00" d="M350,-163.6C350,-163.6 350,-115.2 350,-115.2"/>
<polygon fill="#fb8c00" stroke="#fb8c00" points="353.5,-115.2 350,-105.2 346.5,-115.2 353.5,-115.2"/>
<text xml:space="preserve" text-anchor="middle" x="358.28" y="-129.4" font-family="Times,serif" font-size="14.00">API</text>
</g>
<!-- filebeat&#45;&gt;es -->
<g id="edge5" class="edge">
<title>filebeat-&gt;es</title>
<path fill="none" stroke="#ea4335" stroke-width="2" d="M342,-328.31C342,-328.31 342,-264.58 342,-264.58"/>
<polygon fill="#ea4335" stroke="#ea4335" stroke-width="2" points="345.5,-264.58 342,-254.58 338.5,-264.58 345.5,-264.58"/>
<text xml:space="preserve" text-anchor="middle" x="370" y="-294.2" font-family="Times,serif" font-size="14.00">отправка</text>
<text xml:space="preserve" text-anchor="middle" x="370" y="-277.4" font-family="Times,serif" font-size="14.00">логов</text>
</g>
</g>
</svg>